# AST/ASF file generated using VICON BodyLanguage
# -----------------------------------------------
:version 1.10
:name VICON
:units
  mass 1.0
  length 0.45
  angle deg
:documentation
   .ast/.asf automatically generated from VICON data using
   VICON BodyBuilder and BodyLanguage model FoxedUp or BRILLIANT.MOD
:root
   order TX TY TZ RX RY RZ
   axis XYZ
   position 0 0 0  
   orientation 0 0 0 
:bonedata
  begin
     id 1 
     name lhipjoint
     direction 0.660183 -0.676772 0.325788 
     length 2.75133 
     axis 0 0 0  XYZ
  end
  begin
     id 2 
     name lfemur
     direction 0.34202 -0.939693 0  
     length 7.70317  
     axis 0 0 20  XYZ
    dof rx ry rz
    limits (-160.0 20.0)
           (-70.0 70.0)
           (-60.0 70.0)
  end
  begin
     id 3 
     name ltibia
     direction 0.342105 -0.939662 0   
     length 7.18701   
     axis 0 0 20   XYZ
    dof rx
    limits (-10.0 170.0)
  end
  begin
     id 4 
     name lfoot
     direction 0.14163 -0.389126 0.910232   
     length 2.41719   
     axis -90 7.62852e-016 20   XYZ
    dof rx rz
    limits (-45.0 90.0)
           (-70.0 20.0)
  end
  begin
     id 5 
     name ltoes
     direction 1.53533e-011 -4.21926e-011 1   
     length 1.18611   
     axis -90 7.62852e-016 20   XYZ
    dof rx
    limits (-90.0 20.0)
  end
  begin
     id 6 
     name rhipjoint
     direction -0.6658 -0.67229 0.323631   
     length 2.76968  
     axis 0 0 0  XYZ 
  end
  begin
     id 7 
     name rfemur
     direction -0.34202 -0.939693 0   
     length 7.92547   
     axis 0 0 -20   XYZ
    dof rx ry rz
    limits (-160.0 20.0)
           (-70.0 70.0)
           (-70.0 60.0)
  end
  begin
     id 8 
     name rtibia
     direction -0.342022 -0.939692 0   
     length 7.22641   
     axis 0 0 -20   XYZ
    dof rx
    limits (-10.0 170.0)
 end
 begin
     id 9 
     name rfoot
     direction -0.105675 -0.29034 0.951071   
     length 2.48149  
     axis -90 -7.62852e-016 -20   XYZ
    dof rx rz
    limits (-45.0 90.0)
           (-20.0 70.0)
  end
  begin
     id 10 
     name rtoes
     direction -1.5349e-011 -4.21859e-011 1   
     length 1.23343   
     axis -90 -7.62852e-016 -20   XYZ
    dof rx
    limits (-90.0 20.0)
  end
  begin
     id 11 
     name lowerback
     direction 0.0104173 0.993624 -0.112266   
     length 2.00527   
     axis 0 0 0   XYZ
    dof rx ry rz
    limits (-20.0 45.0)
           (-30.0 30.0)
           (-30.0 30.0)
  end
  begin
     id 12 
     name upperback
     direction 0.00733149 0.999856 -0.0152913   
     length 2.01385   
     axis 0 0 0   XYZ
    dof rx ry rz
    limits (-20.0 45.0)
           (-30.0 30.0)
           (-30.0 30.0)
  end
  begin
     id 13 
     name thorax
     direction 0.0026304 0.999318 0.036841   
     length 2.03734   
     axis 0 0 0   XYZ
    dof rx ry rz
    limits (-20.0 45.0)
           (-30.0 30.0)
           (-30.0 30.0)
  end
  begin
     id 14 
     name lowerneck
     direction 0.0293154 0.998757 0.0403082   
     length 1.65303   
     axis 0 0 0   XYZ
    dof rx ry rz
    limits (-20.0 45.0)
           (-30.0 30.0)
           (-30.0 30.0)
  end
  begin
     id 15 
     name upperneck
     direction -0.0376619 0.998184 -0.0470083   
     length 1.60926   
     axis 0 0 0   XYZ
    dof rx ry rz
    limits (-20.0 45.0)
           (-30.0 30.0)
           (-30.0 30.0)
  end
  begin
     id 16
     name head
     direction -0.0170133 0.999635 -0.0209778  
     length 1.73625  
     axis 0 0 0   XYZ
    dof rx ry rz
    limits (-20.0 45.0)
           (-30.0 30.0)
           (-30.0 30.0)
  end
  begin
     id 17 
     name lclavicle
     direction 0.919857 0.39181 -0.0186333  
     length 3.75313  
     axis 0 0 0   XYZ
    dof ry rz
    limits (-20.0 10.0)
           (0.0 20.0)
  end
  begin
     id 18 
     name lhumerus
     direction 1 -4.48988e-011 1.44029e-027   
     length 5.49313   
     axis 180 -30 -90   XYZ
    dof rx ry rz
    limits (-60.0 90.0)
           (-90.0 90.0)
           (-90.0 90.0)
  end
  begin
     id 19
     name lradius
     direction 1 -4.48924e-011 7.46281e-027   
     length 3.29037   
     axis 180 -30 -90   XYZ
    dof rx
    limits (-10.0 170.0)
  end
  begin
     id 20
     name lwrist
     direction 1 -4.48955e-011 2.19879e-026   
     length 1.64519   
     axis -1.34358e-014 90 90   XYZ
    dof ry
    limits (-180.0 0.0)
 end
  begin
     id 21 
     name lhand
     direction 1 -4.48978e-011 4.39747e-026   
     length 0.729656   
     axis -2.80598e-014 90 90   XYZ
    dof rx rz
    limits (-90.0 90.0)
           (-45.0 45.0)
  end
  begin
     id 22 
     name lfingers
     direction 1 -4.49071e-011 8.79411e-026   
     length 0.588268   
     axis -5.61193e-014 90 90   XYZ
    dof rx
    limits (0.0 90.0)
  end
  begin
     id 23
     name lthumb
     direction 0.707107 -6.34817e-011 0.707107   
     length 0.844638   
     axis -90 45 -9.86923e-015   XYZ
    dof rx rz
    limits (-45.0 45.0)
           (-45.0 45.0)
  end
  begin
     id 24 
     name rclavicle
     direction -0.919898 0.388279 0.0550233   
     length 3.7171  
     axis 0 0 0   XYZ 
    dof ry rz
    limits (-10.0 20.0)
           (-20.0 0.0)
  end
  begin
     id 25 
     name rhumerus
     direction -1 -4.48968e-011 9.98372e-028  
     length 5.23684   
     axis 180 30 90   XYZ
    dof rx ry rz
    limits (-90.0 60.0)
           (-90.0 90.0)
           (-90.0 90.0)
  end
  begin
     id 26 
     name rradius
     direction -1 -4.48956e-011 1.01023e-026   
     length 3.38251   
     axis 180 30 90   XYZ
    dof rx
    limits (-10.0 170.0)
  end
  begin
     id 27 
     name rwrist
     direction -1 -4.4892e-011 2.19886e-026   
     length 1.69126   
     axis -1.34358e-014 -90 -90   XYZ
    dof ry
    limits (-180.0 0.0)
  end
  begin
     id 28
     name rhand
     direction -1 -4.49024e-011 4.39727e-026   
     length 0.691454   
     axis -2.80598e-014 -90 -90   XYZ
    dof rx rz
    limits (-90.0 90.0)
           (-45.0 45.0)
  end
  begin
     id 29
     name rfingers
     direction -1 -4.49097e-011 8.79388e-026   
     length 0.557468   
     axis -5.61193e-014 -90 -90   XYZ
    dof rx
    limits (0.0 90.0)
  end
  begin
     id 30
     name rthumb
     direction -0.707107 -6.34938e-011 0.707107   
     length 0.800416   
     axis -90 -45 9.86923e-015   XYZ
    dof rx rz
    limits (-45.0 45.0)
           (-45.0 45.0)
  end
:hierarchy
  begin
    root lhipjoint rhipjoint lowerback
    lhipjoint lfemur
    lfemur ltibia
    ltibia lfoot
    lfoot ltoes
    rhipjoint rfemur
    rfemur rtibia
    rtibia rfoot
    rfoot rtoes
    lowerback upperback
    upperback thorax
    thorax lowerneck lclavicle rclavicle
    lowerneck upperneck
    upperneck head
    lclavicle lhumerus
    lhumerus lradius
    lradius lwrist
    lwrist lhand lthumb
    lhand lfingers
    rclavicle rhumerus
    rhumerus rradius
    rradius rwrist
    rwrist rhand rthumb
    rhand rfingers
  end

#!OML:ASF H:\BabyWalks\Project 1\Capture day 1\Session 1\baby.ASF
:FULLY-SPECIFIED
:DEGREES
31
root -37.0228 17.5923 -2.3032 -21.6124 81.786 -23.9293
lowerback 17.6809 -1.34564 -0.680943
upperback 6.29013 -1.44689 1.97285
thorax -3.09636 -0.597296 2.75034
lowerneck -3.89334 3.62718 1.80344
upperneck -11.1071 4.71029 -4.90191
head -2.70644 2.52823 -1.94651
rclavicle 1.41137e-014 -1.57537e-014
rhumerus -57.1779 35.0775 -96.58
rradius 48.9969
rwrist -9.32889
rhand -7.81056 -17.6132
rfingers 7.12502
rthumb 18.0911 -46.7919
lclavicle 1.41137e-014 -1.57537e-014
lhumerus -56.25 -10.653 91.4129
lradius 50.3643
lwrist 6.48516
lhand -1.3686 12.0119
lfingers 7.12502
lthumb 24.2789 40.4946
rfemur 0.515583 7.65985 27.497
rtibia 19.5668
rfoot -24.1133 -6.2496
rtoes 12.1857
lfemur -21.4668 -6.50298 -10.2951
ltibia 31.8006
lfoot -14.5187 -9.47512
ltoes 8.59264
32
root -37.0236 17.5909 -2.30115 -21.5129 81.8047 -23.8021
lowerback 17.6893 -1.3355 -0.684927
upperback 6.29238 -1.4345 1.96305
thorax -3.09919 -0.590985 2.73996
lowerneck -3.88687 3.61796 1.83294
upperneck -11.0654 4.69655 -4.91037
head -2.69322 2.51953 -1.9533
rclavicle -1.48095e-014 -4.91992e-015
rhumerus -57.1849 35.057 -96.5715
rradius 49.0247
rwrist -9.34942
rhand -7.89594 -17.6399
rfingers 7.12502
rthumb 18.009 -46.8261
lclavicle -1.48095e-014 -4.91992e-015
lhumerus -56.2594 -10.7534 91.4162
lradius 50.4356
lwrist 6.52156
lhand -1.42437 11.9908
lfingers 7.12502
lthumb 24.2254 40.4806
rfemur 0.491031 7.67389 27.4871
rtibia 19.6789
rfoot -24.1179 -6.28933
rtoes 11.9861
lfemur -21.4492 -6.50824 -10.3197
ltibia 31.812
lfoot -14.5752 -9.4889
ltoes 8.3312
33
root -37.0243 17.5894 -2.29916 -21.4387 81.823 -23.7017
lowerback 17.696 -1.3263 -0.683187
upperback 6.29495 -1.42237 1.95345
thorax -3.10093 -0.58477 2.72654
lowerneck -3.8827 3.60865 1.86366
upperneck -11.0241 4.68264 -4.91974
head -2.67968 2.51075 -1.96055
rclavicle 1.76421e-015 -1.26228e-014
rhumerus -57.1944 35.0348 -96.562
rradius 49.0583
rwrist -9.37356
rhand -7.98154 -17.665
rfingers 7.12502
rthumb 17.9266 -46.8588
lclavicle 1.76421e-015 -1.26228e-014
lhumerus -56.2758 -10.8694 91.4264
lradius 50.5253
lwrist 6.56756
lhand -1.46708 11.9663
lfingers 7.12502
lthumb 24.1844 40.4615
rfemur 0.468298 7.69191 27.4822
rtibia 19.7851
rfoot -24.1221 -6.33386
rtoes 11.8009
lfemur -21.4333 -6.51472 -10.34
ltibia 31.8235
lfoot -14.6303 -9.50258
ltoes 8.07868
34
root -37.0251 17.5881 -2.29729 -21.3587 81.8463 -23.5983
lowerback 17.7007 -1.31926 -0.679824
upperback 6.29511 -1.41303 1.9419
thorax -3.10411 -0.579941 2.71067
lowerneck -3.87275 3.59917 1.89472
upperneck -10.9849 4.66857 -4.92754
head -2.66797 2.50188 -1.96759
rclavicle 2.6339e-015 1.44119e-014
rhumerus -57.2086 35.0124 -96.556
rradius 49.0932
rwrist -9.40297
rhand -8.06698 -17.6948
rfingers 7.12502
rthumb 17.8444 -46.8961
lclavicle 2.6339e-015 1.44119e-014
lhumerus -56.3016 -10.9972 91.441
lradius 50.6286
lwrist 6.62078
lhand -1.50062 11.9334
lfingers 7.12502
lthumb 24.1523 40.4329
rfemur 0.445723 7.71261 27.475
rtibia 19.8852
rfoot -24.1278 -6.38414
rtoes 11.638
lfemur -21.4211 -6.522 -10.3632
ltibia 31.8333
lfoot -14.6827 -9.51878
ltoes 7.82674
35
root -37.0257 17.5869 -2.29551 -21.2979 81.8702 -23.5154
lowerback 17.7044 -1.31385 -0.672423
upperback 6.29487 -1.40516 1.93069
thorax -3.10727 -0.575813 2.69312
lowerneck -3.86639 3.58993 1.92549
upperneck -10.9433 4.65487 -4.93492
head -2.65479 2.49315 -1.97426
rclavicle -1.24737e-014 3.13583e-014
rhumerus -57.2239 34.9899 -96.5483
rradius 49.1309
rwrist -9.43158
rhand -8.14944 -17.7272
rfingers 7.12502
rthumb 17.765 -46.9357
lclavicle -1.24737e-014 3.13583e-014
lhumerus -56.3323 -11.1312 91.4578
lradius 50.7421
lwrist 6.68509
lhand -1.52802 11.8918
lfingers 7.12502
lthumb 24.126 40.3948
rfemur 0.425604 7.73172 27.4702
rtibia 19.9778
rfoot -24.1351 -6.43293
rtoes 11.5098
lfemur -21.4094 -6.52751 -10.3841
ltibia 31.8407
lfoot -14.7324 -9.53789
ltoes 7.58129
36
root -37.0262 17.5858 -2.29383 -21.2323 81.8969 -23.4292
lowerback 17.7053 -1.31041 -0.664118
upperback 6.29381 -1.39988 1.91831
thorax -3.10975 -0.572985 2.67428
lowerneck -3.86064 3.58099 1.95503
upperneck -10.8985 4.64176 -4.94022
head -2.6405 2.48462 -1.97994
rclavicle -2.23633e-014 4.27387e-014
rhumerus -57.2393 34.9667 -96.54
rradius 49.1633
rwrist -9.45937
rhand -8.23687 -17.7452
rfingers 7.12502
rthumb 17.6809 -46.9613
lclavicle -2.23633e-014 4.27387e-014
lhumerus -56.3657 -11.2679 91.4736
lradius 50.8588
lwrist 6.75558
lhand -1.55142 11.8425
lfingers 7.12502
lthumb 24.1036 40.3485
rfemur 0.408498 7.74965 27.4629
rtibia 20.061
rfoot -24.1429 -6.48218
rtoes 11.3999
lfemur -21.3978 -6.53219 -10.4073
ltibia 31.8447
lfoot -14.7795 -9.55904
ltoes 7.34475
37
root -37.0267 17.5848 -2.29229 -21.1812 81.9262 -23.3595
lowerback 17.7044 -1.30863 -0.65392
upperback 6.29176 -1.39643 1.90721
thorax -3.11222 -0.571082 2.65605
lowerneck -3.85728 3.5723 1.98403
upperneck -10.8498 4.62891 -4.94653
head -2.62445 2.47619 -1.98568
rclavicle -8.4732e-015 -2.57426e-014
rhumerus -57.2535 34.9427 -96.5273
rradius 49.1903
rwrist -9.4865
rhand -8.32486 -17.7498
rfingers 7.12502
rthumb 17.5962 -46.9735
lclavicle -8.4732e-015 -2.57426e-014
lhumerus -56.3985 -11.4047 91.4891
lradius 50.9736
lwrist 6.83278
lhand -1.57122 11.7897
lfingers 7.12502
lthumb 24.0846 40.2982
rfemur 0.395627 7.76651 27.4564
rtibia 20.1316
rfoot -24.1373 -6.53316
rtoes 11.2781
lfemur -21.3877 -6.53465 -10.4299
ltibia 31.8453
lfoot -14.8222 -9.58564
ltoes 7.12072
38
root -37.0271 17.584 -2.29087 -21.1457 81.9564 -23.3066
lowerback 17.703 -1.30837 -0.640495
upperback 6.2867 -1.39456 1.8967
thorax -3.11765 -0.569957 2.63696
lowerneck -3.8488 3.56398 2.0122
upperneck -10.7986 4.61653 -4.95227
head -2.60851 2.46797 -1.99117
rclavicle -1.50828e-014 1.48592e-014
rhumerus -57.2702 34.9154 -96.5131
rradius 49.2083
rwrist -9.50465
rhand -8.41582 -17.7424
rfingers 7.12502
rthumb 17.5087 -46.9739
lclavicle -1.50828e-014 1.48592e-014
lhumerus -56.434 -11.5382 91.5015
lradius 51.0839
lwrist 6.91426
lhand -1.58373 11.7394
lfingers 7.12502
lthumb 24.0726 40.2494
rfemur 0.388287 7.77946 27.4508
rtibia 20.1885
rfoot -24.121 -6.58526
rtoes 11.1244
lfemur -21.3774 -6.53668 -10.4507
ltibia 31.8435
lfoot -14.8625 -9.61424
ltoes 6.90645
39
root -37.0273 17.5835 -2.28959 -21.1176 81.9861 -23.2606
lowerback 17.6991 -1.30822 -0.625545
upperback 6.28422 -1.39243 1.88745
thorax -3.11904 -0.568703 2.61817
lowerneck -3.85224 3.55458 2.04151
upperneck -10.7388 4.60252 -4.96145
head -2.58752 2.4588 -1.9974
rclavicle -2.23384e-014 -1.41634e-014
rhumerus -57.276 34.8859 -96.4886
rradius 49.2149
rwrist -9.51813
rhand -8.50556 -17.7213
rfingers 7.12502
rthumb 17.4223 -46.9605
lclavicle -2.23384e-014 -1.41634e-014
lhumerus -56.4591 -11.6658 91.5088
lradius 51.1833
lwrist 6.99506
lhand -1.59008 11.696
lfingers 7.12502
lthumb 24.0665 40.2068
rfemur 0.390123 7.78927 27.4452
rtibia 20.2297
rfoot -24.0956 -6.63265
rtoes 10.9681
lfemur -21.3648 -6.53798 -10.471
ltibia 31.8401
lfoot -14.9013 -9.64382
ltoes 6.70807
40
root -37.0273 17.583 -2.28847 -21.1111 82.0122 -23.2367
lowerback 17.6925 -1.30728 -0.606019
upperback 6.28127 -1.38847 1.87978
thorax -3.11972 -0.566551 2.59804
lowerneck -3.85534 3.54381 2.07403
upperneck -10.6741 4.58627 -4.97504
head -2.56494 2.44841 -2.00551
rclavicle -3.52097e-014 3.03644e-014
rhumerus -57.2768 34.8493 -96.4564
rradius 49.2108
rwrist -9.52598
rhand -8.591 -17.6902
rfingers 7.12502
rthumb 17.3401 -46.9367
lclavicle -3.52097e-014 3.03644e-014
lhumerus -56.4806 -11.7861 91.5095
lradius 51.2724
lwrist 7.07084
lhand -1.59039 11.6553
lfingers 7.12502
lthumb 24.0662 40.1662
rfemur 0.40026 7.79446 27.4426
rtibia 20.2532
rfoot -24.0613 -6.66952
rtoes 10.8361
lfemur -21.351 -6.53771 -10.4867
ltibia 31.8359
lfoot -14.9401 -9.67304
ltoes 6.51712
